# xmcd CD database file
#
# Track frame offsets:
#	150
#	21613
#	50133
#	79320
#	106815
#	127843
#	153411
#	178968
#	212721
#
# Disc length: 3127 seconds
#
# Revision: 0
# Processed by: cddbd v1.5.2PL0 Copyright (c) Steve Scherf et al.
# Submitted via: CDex 1.70beta2
#
DISCID=7d0c3509
DTITLE=Media Noche Trio - Media Noche Trio
DYEAR=2011
DGENRE=Jazz
TTITLE0=Desparate Times
TTITLE1=Escuchame!
TTITLE2=Just a Sec
TTITLE3=Ever Gentle
TTITLE4=Junk
TTITLE5=Rumba Sucio
TTITLE6=Canto Por Eshu
TTITLE7=Small Town Wisdom
TTITLE8=Friends
EXTD=YEAR: 2011
EXTT0=
EXTT1=
EXTT2=
EXTT3=
EXTT4=
EXTT5=
EXTT6=
EXTT7=
EXTT8=
PLAYORDER=
